<svg width="51" height="51" viewBox="0 0 51 51" fill="none" xmlns="http://www.w3.org/2000/svg">
<g clip-path="url(#clip0_285_1333)">
<path d="M9.03506 20.604C8.87006 20.273 8.60906 20 8.28506 19.795C7.94706 19.588 7.54806 19.443 7.09206 19.357C6.62806 19.273 6.09206 19.235 5.47106 19.229L2.60406 19.231C2.30606 19.235 2.01406 19.467 1.94406 19.755L0.0150578 28.157C-0.0549422 28.441 0.132058 28.679 0.430058 28.679H1.80306C2.10106 28.679 2.39606 28.448 2.46206 28.157L2.93306 26.117C2.99606 25.833 3.29006 25.596 3.59106 25.596H3.98406C5.66306 25.594 6.96306 25.251 7.89706 24.564C8.83606 23.876 9.29906 22.967 9.29906 21.841C9.29806 21.348 9.21706 20.934 9.03506 20.604ZM6.07406 23.349C5.65906 23.653 5.08206 23.805 4.33806 23.805H4.00206C3.70306 23.805 3.52006 23.569 3.58506 23.281L3.99806 21.497C4.05606 21.211 4.35706 20.974 4.65206 20.976L5.10206 20.973C5.62706 20.973 6.02806 21.064 6.29606 21.24C6.56106 21.414 6.69406 21.691 6.69206 22.058C6.70006 22.616 6.48706 23.045 6.07406 23.349Z" fill="#E9ECE0"/>
<path d="M48.175 19.887L48.089 19.913L47.974 19.929L47.833 19.907L47.761 19.837L47.728 19.727L47.726 19.562V18.951H48.185V18.762H47.726V18.381H47.499V18.762H47.345V18.951H47.499V19.662L47.605 20.014L47.917 20.126L48.048 20.115L48.187 20.088V19.887H48.175Z" fill="#E9ECE0"/>
<path d="M50.3041 18.859L49.9761 18.724L49.7341 18.773L49.4881 18.939L49.3451 18.78L49.1131 18.725L48.8901 18.774L48.6791 18.91V18.762H48.4561V20.097H48.6781V19.1L48.8651 18.984L49.0511 18.938L49.2031 18.965L49.2781 19.042L49.3111 19.17L49.3221 19.335V20.098H49.5451V19.244L49.5411 19.173L49.5371 19.108L49.7271 18.987L49.9151 18.94L50.0621 18.967L50.1421 19.044L50.1701 19.173L50.1851 19.336V20.099H50.4091V19.232L50.3041 18.859Z" fill="#E9ECE0"/>
<path d="M15.656 21.805C15.138 21.513 14.32 21.367 13.202 21.367C12.649 21.367 12.098 21.41 11.541 21.496C11.13 21.559 11.09 21.571 10.837 21.626C10.315 21.74 10.233 22.261 10.233 22.261L10.065 22.952C9.96999 23.393 10.224 23.376 10.33 23.339C10.558 23.271 10.685 23.201 11.151 23.097C11.596 22.996 12.065 22.92 12.437 22.925C12.986 22.925 13.406 22.983 13.686 23.101C13.962 23.221 14.1 23.427 14.1 23.725L14.076 23.919L13.878 24.041C13.099 24.09 12.536 24.162 11.853 24.261C11.185 24.354 10.599 24.517 10.112 24.74C9.58899 24.97 9.20099 25.279 8.92999 25.672C8.66799 26.067 8.53699 26.546 8.53699 27.108C8.53699 27.637 8.72699 28.074 9.09599 28.412C9.46699 28.744 9.95699 28.906 10.543 28.906C10.914 28.904 11.201 28.875 11.405 28.826L12.07 28.597L12.633 28.285L13.151 27.943L13.158 27.953L13.106 28.173L13.103 28.182V28.184C13.047 28.452 13.209 28.672 13.47 28.698L13.475 28.704H13.499H14.552H14.75L14.768 28.696C15.042 28.664 15.299 28.444 15.359 28.182L16.36 23.849L16.412 23.496L16.436 23.165C16.44 22.551 16.175 22.096 15.656 21.805ZM13.442 26.677L13.228 26.959L12.688 27.238C12.434 27.341 12.193 27.393 11.97 27.393C11.632 27.393 11.367 27.344 11.188 27.244L10.923 26.729C10.923 26.45 10.987 26.229 11.124 26.059L11.706 25.663C11.955 25.579 12.259 25.508 12.611 25.459C12.925 25.42 13.545 25.349 13.626 25.347L13.721 25.514C13.702 25.609 13.526 26.345 13.442 26.677Z" fill="#E9ECE0"/>
<path d="M40.594 21.811C40.073 21.519 39.256 21.372 38.141 21.372C37.588 21.372 37.036 21.415 36.481 21.504C36.069 21.564 36.028 21.577 35.774 21.631C35.253 21.744 35.172 22.267 35.172 22.267L35.004 22.957C34.91 23.398 35.158 23.378 35.274 23.344C35.503 23.276 35.626 23.209 36.088 23.101C36.531 23.001 37.004 22.927 37.377 22.929C37.924 22.929 38.344 22.988 38.623 23.106C38.901 23.226 39.037 23.434 39.037 23.729L39.016 23.922L38.82 24.047C38.033 24.094 37.469 24.166 36.793 24.265C36.127 24.358 35.539 24.52 35.051 24.744C34.53 24.975 34.137 25.284 33.869 25.678C33.604 26.073 33.475 26.551 33.475 27.108C33.475 27.641 33.663 28.078 34.037 28.414C34.41 28.745 34.895 28.911 35.481 28.911C35.85 28.907 36.137 28.883 36.342 28.83L37.005 28.604L37.573 28.292L38.087 27.946L38.096 27.957L38.049 28.179L38.044 28.183L38.046 28.187C37.984 28.455 38.147 28.677 38.411 28.701L38.413 28.706H38.437C38.61 28.706 39.208 28.706 39.493 28.706H39.687L39.708 28.699C39.979 28.666 40.235 28.446 40.292 28.181L41.296 23.854L41.349 23.499L41.378 23.167C41.379 22.555 41.117 22.102 40.594 21.811ZM38.385 26.683L38.162 26.968L37.627 27.245C37.373 27.347 37.131 27.4 36.912 27.4C36.563 27.4 36.305 27.35 36.131 27.25L35.863 26.737C35.863 26.457 35.928 26.238 36.059 26.065C36.192 25.902 36.395 25.768 36.647 25.67C36.893 25.586 37.197 25.518 37.551 25.467C37.863 25.428 38.481 25.355 38.561 25.354L38.658 25.521C38.644 25.616 38.467 26.349 38.385 26.683Z" fill="#E9ECE0"/>
<path d="M33.969 20.635C33.797 20.302 33.539 20.033 33.213 19.823C32.879 19.615 32.483 19.469 32.02 19.385C31.565 19.304 31.022 19.26 30.405 19.259L27.534 19.261C27.235 19.266 26.948 19.498 26.879 19.783L24.948 28.189C24.878 28.474 25.07 28.71 25.362 28.71L26.737 28.708C27.029 28.71 27.328 28.476 27.397 28.188L27.862 26.147C27.93 25.863 28.225 25.624 28.522 25.626H28.915C30.596 25.626 31.899 25.28 32.837 24.595C33.764 23.902 34.233 22.995 34.233 21.868C34.228 21.377 34.143 20.962 33.969 20.635ZM31.008 23.384C30.594 23.682 30.016 23.834 29.276 23.834H28.934C28.639 23.837 28.448 23.597 28.514 23.311L28.93 21.53C28.991 21.245 29.289 21.006 29.586 21.009L30.031 21.006C30.559 21.009 30.955 21.096 31.225 21.272C31.494 21.448 31.621 21.724 31.624 22.09C31.627 22.648 31.42 23.078 31.008 23.384Z" fill="#E9ECE0"/>
<path d="M45.742 19.85C45.805 19.563 45.625 19.33 45.33 19.334H44.1C43.848 19.334 43.621 19.521 43.51 19.751L43.442 19.857L43.38 20.129L41.661 27.943L41.605 28.183L41.607 28.189C41.55 28.446 41.708 28.64 41.952 28.677L41.973 28.706H43.25C43.5 28.706 43.735 28.516 43.842 28.282L43.908 28.182L45.746 19.851L45.742 19.85Z" fill="#E9ECE0"/>
<path d="M24.986 21.472C24.661 21.476 23.34 21.472 23.34 21.472C23.044 21.472 22.664 21.711 22.476 21.996C22.476 21.996 20.51 25.37 20.319 25.709L20.091 25.706L19.479 22.019C19.411 21.729 19.108 21.481 18.731 21.481L17.501 21.483C17.205 21.483 17.023 21.719 17.09 22.007C17.09 22.007 18.024 27.322 18.211 28.573C18.298 29.263 18.2 29.386 18.2 29.386L16.984 31.504C16.804 31.792 16.901 32.027 17.196 32.027L18.618 32.025C18.914 32.025 19.303 31.792 19.479 31.503L24.949 22.251C24.949 22.252 25.475 21.461 24.986 21.472Z" fill="#E9ECE0"/>
</g>
<defs>
<clipPath id="clip0_285_1333">
<rect width="50.409" height="50.409" fill="white"/>
</clipPath>
</defs>
</svg>
