<svg width="49" height="49" viewBox="0 0 49 49" fill="none" xmlns="http://www.w3.org/2000/svg">
<g clip-path="url(#clip0_285_1305)">
<path d="M33.933 9.716C30.192 9.717 26.782 11.135 24.212 13.464C21.64 11.138 18.232 9.719 14.495 9.719C14.464 9.719 14.432 9.719 14.402 9.719C6.444 9.771 0 16.245 0 24.214C0 32.215 6.494 38.708 14.494 38.708C18.231 38.708 21.639 37.291 24.21 34.963C23.673 34.478 23.187 33.941 22.728 33.379H25.721C25.27 33.932 24.778 34.45 24.249 34.932H24.247C24.235 34.945 24.222 34.953 24.21 34.964C26.783 37.294 30.195 38.714 33.938 38.713C41.943 38.71 48.43 32.218 48.428 24.214C48.428 24.211 48.428 24.209 48.428 24.207C48.429 16.203 41.938 9.714 33.933 9.716ZM22.894 14.961H25.649C26.055 15.453 26.432 15.971 26.774 16.513H21.859C22.176 15.995 22.524 15.462 22.894 14.961ZM21.003 18.035H27.61C27.845 18.537 28.053 19.056 28.235 19.588H20.22C20.3 19.438 20.58 18.834 21.003 18.035ZM5.917 27.906L6.796 22.364L4.813 27.906H3.75L3.612 22.364L2.673 27.906H1.184L2.418 20.556H4.67L4.749 25.066L6.27 20.556H8.713L7.496 27.906H5.917ZM11.182 27.894L11.233 27.307C11.209 27.31 10.739 28.016 9.65 28.016C9.08 28.016 8.16 27.705 8.16 26.353C8.16 24.634 9.562 24.064 10.897 24.064C11.107 24.064 11.56 24.102 11.56 24.102C11.56 24.102 11.611 23.997 11.611 23.713C11.611 23.246 11.191 23.182 10.616 23.182C9.603 23.182 8.934 23.453 8.934 23.453L9.158 22.123C9.158 22.123 9.97 21.783 11.027 21.783C11.574 21.783 13.147 21.841 13.147 23.644L12.541 27.894H11.182ZM16.925 26.022C16.925 28.073 14.938 27.985 14.591 27.985C13.296 27.985 12.896 27.806 12.859 27.796L13.065 26.446C13.067 26.434 13.715 26.681 14.436 26.681C14.852 26.681 15.392 26.64 15.392 26.143C15.392 25.399 13.46 25.577 13.46 23.81C13.46 22.251 14.618 21.795 15.76 21.795C16.642 21.795 17.184 21.916 17.184 21.916L16.989 23.278C16.989 23.278 16.152 23.209 15.935 23.209C15.386 23.209 15.087 23.329 15.087 23.713C15.086 24.485 16.925 24.107 16.925 26.022ZM19.311 26.56C19.448 26.56 19.603 26.513 19.709 26.513L19.516 27.824C19.361 27.867 18.922 28.023 18.359 28.027C17.64 28.033 17.129 27.631 17.129 26.719C17.129 26.107 18.006 21.064 18.04 21.031H19.583L19.426 21.933H20.196L19.999 23.386H19.182L18.748 26.063C18.715 26.276 18.774 26.56 19.311 26.56ZM22.705 21.763C24.399 21.763 24.906 23.003 24.906 24.02C24.906 24.427 24.702 25.427 24.702 25.427H21.566C21.566 25.427 21.276 26.662 22.933 26.662C23.71 26.662 24.572 26.282 24.572 26.282L24.3 27.769C24.3 27.769 23.802 28.023 22.67 28.023C21.443 28.023 20.004 27.504 20.004 25.324C20.005 23.435 21.153 21.763 22.705 21.763ZM26.792 31.886H21.65C21.337 31.386 21.045 30.873 20.794 30.334H27.637C27.385 30.87 27.103 31.388 26.792 31.886ZM26.447 27.917H24.863L25.826 21.935H27.263L27.125 22.802C27.125 22.802 27.637 21.859 28.328 21.859C28.529 21.859 28.626 21.879 28.626 21.879C28.421 22.297 28.24 22.68 28.052 23.669C26.98 23.289 26.898 25.362 26.447 27.917ZM32.482 27.824C32.482 27.824 31.652 28.036 31.132 28.036C29.29 28.036 28.355 26.765 28.355 24.84C28.355 21.937 30.088 20.391 31.869 20.391C32.674 20.391 33.607 20.769 33.607 20.769L33.355 22.404C33.355 22.404 32.724 21.963 31.939 21.963C30.889 21.963 29.947 22.965 29.947 24.786C29.947 25.683 30.386 26.519 31.482 26.519C32.003 26.519 32.758 26.14 32.758 26.14L32.482 27.824ZM36.197 27.897L36.249 27.306C36.224 27.309 35.754 28.015 34.666 28.015C34.096 28.015 33.176 27.704 33.176 26.352C33.176 24.633 34.578 24.063 35.912 24.063C36.122 24.063 36.576 24.101 36.576 24.101C36.576 24.101 36.628 23.997 36.628 23.713C36.628 23.246 36.208 23.182 35.632 23.182C34.619 23.182 33.951 23.453 33.951 23.453L34.175 22.123C34.175 22.123 34.987 21.783 36.045 21.783C36.591 21.783 38.165 21.841 38.164 23.644L37.558 27.894C37.557 27.897 36.197 27.897 36.197 27.897ZM39.404 27.917H37.82L38.783 21.935H40.221L40.083 22.802C40.083 22.802 40.596 21.859 41.287 21.859C41.488 21.859 41.584 21.879 41.584 21.879C41.38 22.297 41.197 22.68 41.01 23.669C39.937 23.289 39.855 25.362 39.404 27.917ZM44.133 27.901L44.2 27.35C44.2 27.35 43.688 27.996 42.762 27.996C41.479 27.996 40.85 26.757 40.85 25.491C40.85 23.533 42.028 21.826 43.442 21.826C44.352 21.828 44.933 22.631 44.933 22.631L45.267 20.566L46.814 20.563L45.634 27.901H44.133ZM47.185 27.694C47.144 27.768 47.086 27.825 47.012 27.869C46.939 27.91 46.861 27.931 46.779 27.931C46.699 27.931 46.622 27.91 46.548 27.869C46.474 27.825 46.416 27.768 46.375 27.694C46.333 27.619 46.313 27.543 46.313 27.462C46.313 27.38 46.334 27.302 46.375 27.228C46.416 27.154 46.477 27.094 46.55 27.054C46.626 27.013 46.701 26.992 46.779 26.992C46.859 26.992 46.935 27.013 47.009 27.054C47.085 27.095 47.143 27.152 47.185 27.228C47.228 27.303 47.247 27.381 47.247 27.462C47.247 27.543 47.227 27.62 47.185 27.694Z" fill="#E9ECE0"/>
<path d="M47.0611 32.117C47.0511 32.11 47.0421 32.099 47.0261 32.093C47.0101 32.087 46.985 32.084 46.946 32.084H46.8521V32.234H46.952C46.999 32.234 47.03 32.23 47.048 32.213C47.065 32.199 47.0731 32.182 47.0731 32.158C47.0731 32.142 47.0691 32.131 47.0611 32.117Z" fill="#E9ECE0"/>
<path d="M47.384 32.027C47.341 31.949 47.282 31.894 47.207 31.853C47.132 31.812 47.056 31.791 46.978 31.791C46.898 31.791 46.822 31.812 46.748 31.853C46.674 31.894 46.613 31.951 46.572 32.027C46.529 32.101 46.51 32.179 46.51 32.259C46.51 32.339 46.531 32.418 46.572 32.491C46.615 32.565 46.673 32.625 46.746 32.666C46.82 32.707 46.898 32.728 46.98 32.728C47.06 32.728 47.138 32.707 47.211 32.666C47.284 32.625 47.343 32.565 47.384 32.491C47.426 32.418 47.446 32.34 47.446 32.259C47.446 32.178 47.425 32.1 47.384 32.027ZM47.096 32.519L47.052 32.44C47.017 32.378 46.988 32.337 46.966 32.321C46.952 32.311 46.93 32.303 46.902 32.303H46.855V32.518H46.773V32.013H46.947C47.007 32.013 47.05 32.018 47.074 32.028C47.101 32.038 47.124 32.052 47.138 32.077C47.154 32.1 47.161 32.125 47.161 32.151C47.161 32.188 47.147 32.219 47.122 32.248C47.096 32.274 47.06 32.291 47.017 32.294C47.035 32.3 47.049 32.31 47.06 32.321C47.081 32.341 47.105 32.374 47.135 32.42L47.197 32.519H47.096Z" fill="#E9ECE0"/>
<path d="M11.022 25.211C9.89099 25.211 9.66199 25.719 9.66199 26.142C9.66199 26.36 9.78699 26.724 10.266 26.724C11.195 26.724 11.388 25.506 11.358 25.247C11.314 25.238 11.286 25.212 11.022 25.211Z" fill="#E9ECE0"/>
<path d="M22.711 23.144C21.87 23.144 21.708 24.101 21.708 24.202H23.421C23.421 24.125 23.582 23.144 22.711 23.144Z" fill="#E9ECE0"/>
<path d="M43.709 23.311C43.03 23.311 42.493 24.099 42.494 25.296C42.494 26.026 42.754 26.494 43.31 26.494C44.146 26.494 44.549 25.403 44.549 24.59C44.549 23.693 44.264 23.311 43.709 23.311Z" fill="#E9ECE0"/>
<path d="M47.1149 27.268C47.0799 27.206 47.0309 27.158 46.9689 27.123C46.9069 27.088 46.8439 27.071 46.7779 27.071C46.7139 27.071 46.6489 27.089 46.5869 27.123C46.5249 27.155 46.4759 27.205 46.4409 27.268C46.4059 27.331 46.3879 27.398 46.3879 27.463C46.3879 27.53 46.4059 27.596 46.4389 27.657C46.4759 27.719 46.5229 27.766 46.5849 27.803C46.6469 27.837 46.7109 27.857 46.7779 27.857C46.8449 27.857 46.9109 27.837 46.9709 27.803C47.0329 27.768 47.0809 27.72 47.1169 27.657C47.1519 27.595 47.1679 27.53 47.1679 27.463C47.1679 27.397 47.1499 27.331 47.1149 27.268ZM46.8979 27.72L46.8529 27.642C46.8179 27.579 46.7899 27.539 46.7689 27.524C46.7519 27.511 46.7319 27.505 46.7029 27.505H46.6569V27.719H46.5729V27.215H46.7479C46.8069 27.215 46.8509 27.22 46.8759 27.231C46.9009 27.24 46.9229 27.257 46.9399 27.279C46.9569 27.301 46.9629 27.326 46.9629 27.353C46.9629 27.39 46.9489 27.421 46.9229 27.449C46.8969 27.478 46.8609 27.49 46.8189 27.495C46.8389 27.503 46.8519 27.512 46.8619 27.521C46.8829 27.542 46.9069 27.572 46.9359 27.62L46.9979 27.72H46.8979Z" fill="#E9ECE0"/>
<path d="M36.039 25.211C34.908 25.211 34.679 25.719 34.679 26.142C34.679 26.36 34.803 26.724 35.283 26.724C36.212 26.724 36.404 25.506 36.375 25.247C36.33 25.238 36.302 25.212 36.039 25.211Z" fill="#E9ECE0"/>
<path d="M46.864 27.318C46.856 27.308 46.845 27.3 46.83 27.293C46.813 27.288 46.788 27.283 46.748 27.283V27.284H46.657V27.436H46.756C46.803 27.436 46.834 27.43 46.853 27.415C46.868 27.4 46.877 27.381 46.877 27.359C46.877 27.342 46.873 27.332 46.864 27.318Z" fill="#E9ECE0"/>
</g>
<defs>
<clipPath id="clip0_285_1305">
<rect width="48.428" height="48.428" fill="white"/>
</clipPath>
</defs>
</svg>
