<svg width="32" height="32" viewBox="0 0 32 32" fill="none" xmlns="http://www.w3.org/2000/svg">
<path d="M5.85298 22.202C6.18698 22.035 6.83498 21.712 6.83498 20.561C6.83498 19.735 6.33298 18.506 4.36798 18.506H0.474976V26.519H3.86798C5.50898 26.519 5.94398 26.24 6.40098 25.791C6.82298 25.381 7.09098 24.776 7.09098 24.143C7.09098 23.35 6.83498 22.569 5.85298 22.202ZM2.08298 19.893H4.00298C4.76098 19.893 5.22998 20.093 5.22998 20.751C5.22998 21.389 4.70698 21.645 4.04598 21.645H2.08298V19.893ZM4.13398 25.135H2.08298V22.992H4.21398C4.81798 22.992 5.41898 23.263 5.41898 23.963C5.41698 24.776 4.94798 25.135 4.13398 25.135Z" fill="#E9ECE0"/>
<path d="M0.475952 27.788V28.516H1.71595V31.893H2.57095V28.516H3.81395V27.788H0.475952Z" fill="#E9ECE0"/>
<path d="M28.0659 21.787L31.3359 18.505H29.1719L26.1139 21.762V18.505H24.4399V26.516H26.1139V23.805L26.8949 23.001L29.3709 26.516H31.5249L28.0659 21.787Z" fill="#E9ECE0"/>
<path d="M12.361 18.505H10.431L7.57703 26.517H9.33903L9.89603 24.867H12.853L13.367 26.516H15.185L12.361 18.505ZM10.342 23.481L11.369 20.313H11.392L12.384 23.481H10.342Z" fill="#E9ECE0"/>
<path d="M19.829 2.805C19.327 2.212 18.774 1.659 18.124 1.18C17.802 0.938 17.458 0.715 17.081 0.515C16.701 0.319 16.312 0.13 15.847 0C15.855 0.483 15.939 0.908 16.038 1.324C16.132 1.728 16.259 2.107 16.407 2.471C16.053 2.575 15.623 2.721 15.139 2.909C14.826 3.049 14.483 3.175 14.137 3.362C13.786 3.53 13.43 3.734 13.069 3.962C12.702 4.169 12.36 4.463 12.001 4.717C11.674 5.028 11.315 5.297 11.024 5.65C10.723 5.988 10.429 6.326 10.202 6.71C10.087 6.897 9.95403 7.07 9.85803 7.261C9.76603 7.455 9.67803 7.648 9.59203 7.836C9.39703 8.2 9.30803 8.592 9.20603 8.949C9.08503 9.303 9.04203 9.65 9.00903 9.97C8.98203 10.289 8.91503 10.571 8.93103 10.831C8.93903 11.087 8.94503 11.309 8.95103 11.493C8.96203 11.856 8.96503 12.063 8.96503 12.063C8.96503 12.063 9.00403 11.858 9.07003 11.501C9.10303 11.324 9.14403 11.111 9.19103 10.865C9.22803 10.62 9.35503 10.36 9.44303 10.073C9.53703 9.786 9.64603 9.48 9.82603 9.186C9.99003 8.887 10.139 8.564 10.381 8.285C10.49 8.142 10.602 7.994 10.713 7.847C10.83 7.704 10.98 7.581 11.109 7.447C11.363 7.17 11.673 6.946 11.98 6.724C12.273 6.491 12.63 6.334 12.939 6.143C13.291 6.002 13.601 5.826 13.947 5.724C14.277 5.604 14.602 5.503 14.92 5.431C15.229 5.341 15.54 5.301 15.811 5.243C15.985 5.218 16.145 5.197 16.299 5.178C16.281 5.224 16.262 5.268 16.246 5.315C16.088 5.748 15.965 6.203 15.879 6.682C15.84 6.925 15.808 7.171 15.783 7.422C15.763 7.677 15.759 7.941 15.777 8.219C16.038 8.119 16.275 8.006 16.5 7.883C16.717 7.756 16.93 7.624 17.133 7.488C17.536 7.211 17.899 6.91 18.227 6.588C18.891 5.946 19.44 5.229 19.901 4.458L19.96 4.36C20.243 3.881 20.21 3.254 19.829 2.805Z" fill="#E9ECE0"/>
<path d="M7.57795 30.965C7.57795 30.199 7.39395 30.073 7.05695 29.925C7.46295 29.788 7.69195 29.401 7.69195 28.946C7.69195 28.592 7.49295 27.787 6.40095 27.787H4.32495V31.89H5.16695V30.285H6.05195C6.68695 30.285 6.72195 30.503 6.72195 31.061C6.72195 31.483 6.75495 31.697 6.81195 31.889H7.76095V31.782C7.57795 31.714 7.57795 31.564 7.57795 30.965ZM6.16895 29.596H5.16595V28.496H6.23395C6.73595 28.496 6.83395 28.814 6.83395 29.033C6.83295 29.437 6.61695 29.596 6.16895 29.596Z" fill="#E9ECE0"/>
<path d="M23.3389 28.516V27.788H20.4189V31.894H21.2769V30.168H23.0829V29.442H21.2769V28.516H23.3389Z" fill="#E9ECE0"/>
<path d="M24.755 31.165V30.105H26.755V29.379H24.755V28.517H26.934V27.79H23.915V31.893H27.03V31.165H24.755Z" fill="#E9ECE0"/>
<path d="M18.691 29.553L17.693 29.307C17.521 29.266 17.257 29.197 17.257 28.877C17.257 28.506 17.648 28.387 17.972 28.387C18.722 28.387 18.791 28.82 18.814 29.003H19.634C19.628 28.5 19.292 27.678 18.034 27.678C16.702 27.678 16.457 28.483 16.457 28.94C16.457 29.844 17.096 29.995 17.76 30.147L18.199 30.251C18.632 30.356 18.942 30.44 18.942 30.762C18.942 31.191 18.489 31.291 18.086 31.291C17.336 31.291 17.221 30.857 17.215 30.628H16.395C16.395 31.139 16.65 32 18.148 32C18.506 32 19.765 31.888 19.765 30.657C19.764 29.92 19.25 29.689 18.691 29.553Z" fill="#E9ECE0"/>
<path d="M30.982 30.965C30.982 30.199 30.796 30.073 30.461 29.925C30.865 29.788 31.098 29.401 31.098 28.946C31.098 28.592 30.897 27.787 29.805 27.787H27.731V31.89H28.573V30.285H29.458C30.091 30.285 30.128 30.503 30.128 31.061C30.128 31.483 30.161 31.697 30.219 31.889H31.165V31.782C30.982 31.714 30.982 31.564 30.982 30.965ZM29.576 29.596H28.572V28.496H29.638C30.142 28.496 30.24 28.814 30.24 29.033C30.24 29.437 30.023 29.596 29.576 29.596Z" fill="#E9ECE0"/>
<path d="M21.1451 18.508V24.086H21.1241L17.9431 18.508H16.1801V26.52H17.7421L17.7441 20.808H17.7651L21.0351 26.521H22.7071V18.508H21.1451Z" fill="#E9ECE0"/>
<path d="M10.474 27.788H9.48302L8.02002 31.891H8.92402L9.20902 31.044H10.723L10.987 31.891H11.919L10.474 27.788ZM9.43902 30.336L9.96602 28.714H9.97402L10.486 30.336H9.43902Z" fill="#E9ECE0"/>
<path d="M14.976 27.788L14.975 30.644H14.965L13.334 27.788H12.432V31.891H13.231V28.964H13.244L14.918 31.891H15.777V27.788H14.976Z" fill="#E9ECE0"/>
<path d="M21.957 5.66001C21.938 5.29801 21.922 5.09201 21.922 5.09201C21.922 5.09201 21.893 5.29701 21.832 5.65601C21.803 5.83301 21.77 6.04801 21.731 6.29501C21.701 6.54101 21.582 6.80401 21.502 7.09401C21.419 7.38401 21.32 7.69201 21.148 7.99201C20.994 8.29601 20.855 8.62201 20.621 8.90901C20.517 9.05601 20.41 9.20601 20.304 9.35801C20.189 9.50301 20.045 9.63101 19.916 9.76901C19.672 10.052 19.369 10.287 19.068 10.517C18.785 10.759 18.431 10.925 18.127 11.126C17.781 11.277 17.476 11.463 17.133 11.574C16.808 11.705 16.485 11.815 16.169 11.896C15.864 11.996 15.556 12.045 15.286 12.11C15.113 12.141 14.952 12.167 14.8 12.19C14.814 12.143 14.833 12.099 14.849 12.052C14.993 11.613 15.103 11.155 15.175 10.674C15.206 10.43 15.229 10.183 15.247 9.93101C15.26 9.67601 15.256 9.41101 15.231 9.13501C14.973 9.24101 14.739 9.36201 14.518 9.49201C14.303 9.62501 14.098 9.76301 13.897 9.90501C13.505 10.194 13.151 10.505 12.833 10.838C12.189 11.499 11.662 12.232 11.224 13.017L11.167 13.115C10.898 13.603 10.95 14.228 11.345 14.666C11.865 15.243 12.435 15.78 13.097 16.239C13.425 16.472 13.776 16.684 14.161 16.872C14.544 17.058 14.938 17.236 15.409 17.351C15.384 16.87 15.286 16.448 15.179 16.035C15.072 15.634 14.935 15.258 14.775 14.899C15.127 14.784 15.55 14.626 16.029 14.424C16.337 14.276 16.676 14.138 17.017 13.941C17.361 13.764 17.713 13.549 18.062 13.31C18.422 13.092 18.756 12.788 19.109 12.523C19.426 12.204 19.777 11.922 20.058 11.562C20.349 11.215 20.631 10.87 20.847 10.479C20.957 10.288 21.082 10.111 21.174 9.91701C21.258 9.72001 21.342 9.52501 21.422 9.33401C21.606 8.96401 21.684 8.56901 21.776 8.21001C21.884 7.85401 21.92 7.50501 21.942 7.18501C21.963 6.86601 22.018 6.58101 21.996 6.32201C21.979 6.06701 21.967 5.84401 21.957 5.66001Z" fill="#E9ECE0"/>
</svg>
